<mxfile host="Electron" agent="Mozilla/5.0 (Windows NT 10.0; Win64; x64) AppleWebKit/537.36 (KHTML, like Gecko) draw.io/24.7.17 Chrome/128.0.6613.36 Electron/32.0.1 Safari/537.36" version="24.7.17">
  <diagram id="R2lEEEUBdFMjLlhIrx00" name="Page-1">
    <mxGraphModel dx="2074" dy="1196" grid="1" gridSize="10" guides="1" tooltips="1" connect="1" arrows="1" fold="1" page="1" pageScale="1" pageWidth="850" pageHeight="1100" math="0" shadow="0" extFonts="Permanent Marker^https://fonts.googleapis.com/css?family=Permanent+Marker">
      <root>
        <mxCell id="0" />
        <mxCell id="1" parent="0" />
        <mxCell id="LYkMAWIoaBzYGvGp5P5f-6" style="edgeStyle=orthogonalEdgeStyle;rounded=0;orthogonalLoop=1;jettySize=auto;html=1;exitX=0.5;exitY=0;exitDx=0;exitDy=0;entryX=0.5;entryY=1;entryDx=0;entryDy=0;" edge="1" parent="1" source="LYkMAWIoaBzYGvGp5P5f-2" target="LYkMAWIoaBzYGvGp5P5f-4">
          <mxGeometry relative="1" as="geometry" />
        </mxCell>
        <mxCell id="LYkMAWIoaBzYGvGp5P5f-7" style="edgeStyle=orthogonalEdgeStyle;rounded=0;orthogonalLoop=1;jettySize=auto;html=1;exitX=0.5;exitY=0;exitDx=0;exitDy=0;entryX=0.5;entryY=1;entryDx=0;entryDy=0;" edge="1" parent="1" source="LYkMAWIoaBzYGvGp5P5f-2" target="LYkMAWIoaBzYGvGp5P5f-5">
          <mxGeometry relative="1" as="geometry" />
        </mxCell>
        <mxCell id="LYkMAWIoaBzYGvGp5P5f-8" style="edgeStyle=orthogonalEdgeStyle;rounded=0;orthogonalLoop=1;jettySize=auto;html=1;exitX=0.5;exitY=0;exitDx=0;exitDy=0;entryX=0.5;entryY=1;entryDx=0;entryDy=0;" edge="1" parent="1" source="LYkMAWIoaBzYGvGp5P5f-2" target="LYkMAWIoaBzYGvGp5P5f-3">
          <mxGeometry relative="1" as="geometry" />
        </mxCell>
        <mxCell id="LYkMAWIoaBzYGvGp5P5f-2" value="SUCURSALES" style="whiteSpace=wrap;html=1;align=center;" vertex="1" parent="1">
          <mxGeometry x="140" y="220" width="100" height="40" as="geometry" />
        </mxCell>
        <mxCell id="LYkMAWIoaBzYGvGp5P5f-3" value="DIRECCIÓN" style="ellipse;whiteSpace=wrap;html=1;align=center;" vertex="1" parent="1">
          <mxGeometry x="240" y="140" width="80" height="30" as="geometry" />
        </mxCell>
        <mxCell id="LYkMAWIoaBzYGvGp5P5f-4" value="CÓDIGO" style="ellipse;whiteSpace=wrap;html=1;align=center;fontStyle=4;" vertex="1" parent="1">
          <mxGeometry x="60" y="140" width="70" height="30" as="geometry" />
        </mxCell>
        <mxCell id="LYkMAWIoaBzYGvGp5P5f-5" value="TELÉFONO" style="ellipse;whiteSpace=wrap;html=1;align=center;" vertex="1" parent="1">
          <mxGeometry x="150" y="140" width="80" height="30" as="geometry" />
        </mxCell>
        <mxCell id="LYkMAWIoaBzYGvGp5P5f-9" value="HOTEL" style="whiteSpace=wrap;html=1;align=center;" vertex="1" parent="1">
          <mxGeometry x="760" y="700" width="100" height="40" as="geometry" />
        </mxCell>
        <mxCell id="LYkMAWIoaBzYGvGp5P5f-21" style="edgeStyle=orthogonalEdgeStyle;rounded=0;orthogonalLoop=1;jettySize=auto;html=1;exitX=0.5;exitY=1;exitDx=0;exitDy=0;entryX=0.5;entryY=0;entryDx=0;entryDy=0;" edge="1" parent="1" source="LYkMAWIoaBzYGvGp5P5f-11" target="LYkMAWIoaBzYGvGp5P5f-9">
          <mxGeometry relative="1" as="geometry" />
        </mxCell>
        <mxCell id="LYkMAWIoaBzYGvGp5P5f-11" value="CODIGO" style="ellipse;whiteSpace=wrap;html=1;align=center;fontStyle=4;" vertex="1" parent="1">
          <mxGeometry x="690" y="580" width="70" height="30" as="geometry" />
        </mxCell>
        <mxCell id="LYkMAWIoaBzYGvGp5P5f-64" style="edgeStyle=orthogonalEdgeStyle;rounded=0;orthogonalLoop=1;jettySize=auto;html=1;exitX=0;exitY=0.5;exitDx=0;exitDy=0;" edge="1" parent="1" source="LYkMAWIoaBzYGvGp5P5f-15">
          <mxGeometry relative="1" as="geometry">
            <mxPoint x="860" y="720" as="targetPoint" />
          </mxGeometry>
        </mxCell>
        <mxCell id="LYkMAWIoaBzYGvGp5P5f-15" value="TELÉFONO" style="ellipse;whiteSpace=wrap;html=1;align=center;" vertex="1" parent="1">
          <mxGeometry x="940" y="720" width="80" height="30" as="geometry" />
        </mxCell>
        <mxCell id="LYkMAWIoaBzYGvGp5P5f-63" style="edgeStyle=orthogonalEdgeStyle;rounded=0;orthogonalLoop=1;jettySize=auto;html=1;exitX=0;exitY=0.5;exitDx=0;exitDy=0;entryX=1;entryY=0.5;entryDx=0;entryDy=0;" edge="1" parent="1" source="LYkMAWIoaBzYGvGp5P5f-17" target="LYkMAWIoaBzYGvGp5P5f-9">
          <mxGeometry relative="1" as="geometry" />
        </mxCell>
        <mxCell id="LYkMAWIoaBzYGvGp5P5f-17" value="CIUDAD" style="ellipse;whiteSpace=wrap;html=1;align=center;" vertex="1" parent="1">
          <mxGeometry x="940" y="640" width="80" height="30" as="geometry" />
        </mxCell>
        <mxCell id="LYkMAWIoaBzYGvGp5P5f-22" style="edgeStyle=orthogonalEdgeStyle;rounded=0;orthogonalLoop=1;jettySize=auto;html=1;exitX=0.5;exitY=1;exitDx=0;exitDy=0;entryX=0.5;entryY=0;entryDx=0;entryDy=0;" edge="1" parent="1" source="LYkMAWIoaBzYGvGp5P5f-18" target="LYkMAWIoaBzYGvGp5P5f-9">
          <mxGeometry relative="1" as="geometry" />
        </mxCell>
        <mxCell id="LYkMAWIoaBzYGvGp5P5f-18" value="NOMBRE" style="ellipse;whiteSpace=wrap;html=1;align=center;" vertex="1" parent="1">
          <mxGeometry x="770" y="580" width="80" height="30" as="geometry" />
        </mxCell>
        <mxCell id="LYkMAWIoaBzYGvGp5P5f-23" style="edgeStyle=orthogonalEdgeStyle;rounded=0;orthogonalLoop=1;jettySize=auto;html=1;exitX=0.5;exitY=1;exitDx=0;exitDy=0;entryX=0.5;entryY=0;entryDx=0;entryDy=0;" edge="1" parent="1" source="LYkMAWIoaBzYGvGp5P5f-19" target="LYkMAWIoaBzYGvGp5P5f-9">
          <mxGeometry relative="1" as="geometry" />
        </mxCell>
        <mxCell id="LYkMAWIoaBzYGvGp5P5f-19" value="DIRECCIÓN" style="ellipse;whiteSpace=wrap;html=1;align=center;" vertex="1" parent="1">
          <mxGeometry x="860" y="580" width="80" height="30" as="geometry" />
        </mxCell>
        <mxCell id="LYkMAWIoaBzYGvGp5P5f-30" style="edgeStyle=orthogonalEdgeStyle;rounded=0;orthogonalLoop=1;jettySize=auto;html=1;exitX=0.5;exitY=0;exitDx=0;exitDy=0;entryX=0.5;entryY=1;entryDx=0;entryDy=0;" edge="1" parent="1" source="LYkMAWIoaBzYGvGp5P5f-26" target="LYkMAWIoaBzYGvGp5P5f-2">
          <mxGeometry relative="1" as="geometry" />
        </mxCell>
        <mxCell id="LYkMAWIoaBzYGvGp5P5f-31" style="edgeStyle=orthogonalEdgeStyle;rounded=0;orthogonalLoop=1;jettySize=auto;html=1;exitX=1;exitY=0.5;exitDx=0;exitDy=0;entryX=0;entryY=0.5;entryDx=0;entryDy=0;" edge="1" parent="1" source="LYkMAWIoaBzYGvGp5P5f-26" target="LYkMAWIoaBzYGvGp5P5f-27">
          <mxGeometry relative="1" as="geometry" />
        </mxCell>
        <mxCell id="LYkMAWIoaBzYGvGp5P5f-33" style="edgeStyle=orthogonalEdgeStyle;rounded=0;orthogonalLoop=1;jettySize=auto;html=1;exitX=0.5;exitY=1;exitDx=0;exitDy=0;entryX=0.5;entryY=0;entryDx=0;entryDy=0;" edge="1" parent="1" source="LYkMAWIoaBzYGvGp5P5f-26" target="LYkMAWIoaBzYGvGp5P5f-32">
          <mxGeometry relative="1" as="geometry" />
        </mxCell>
        <mxCell id="LYkMAWIoaBzYGvGp5P5f-26" value="CONTRATAN" style="shape=rhombus;perimeter=rhombusPerimeter;whiteSpace=wrap;html=1;align=center;" vertex="1" parent="1">
          <mxGeometry x="270" y="410" width="120" height="60" as="geometry" />
        </mxCell>
        <mxCell id="LYkMAWIoaBzYGvGp5P5f-27" value="VUELOS" style="whiteSpace=wrap;html=1;align=center;" vertex="1" parent="1">
          <mxGeometry x="480" y="520" width="100" height="40" as="geometry" />
        </mxCell>
        <mxCell id="LYkMAWIoaBzYGvGp5P5f-29" style="edgeStyle=orthogonalEdgeStyle;rounded=0;orthogonalLoop=1;jettySize=auto;html=1;exitX=1;exitY=0.5;exitDx=0;exitDy=0;entryX=0;entryY=0.5;entryDx=0;entryDy=0;" edge="1" parent="1" source="LYkMAWIoaBzYGvGp5P5f-28" target="LYkMAWIoaBzYGvGp5P5f-26">
          <mxGeometry relative="1" as="geometry" />
        </mxCell>
        <mxCell id="LYkMAWIoaBzYGvGp5P5f-61" style="edgeStyle=orthogonalEdgeStyle;rounded=0;orthogonalLoop=1;jettySize=auto;html=1;exitX=0.5;exitY=1;exitDx=0;exitDy=0;entryX=0.5;entryY=0;entryDx=0;entryDy=0;" edge="1" parent="1" source="LYkMAWIoaBzYGvGp5P5f-28" target="LYkMAWIoaBzYGvGp5P5f-34">
          <mxGeometry relative="1" as="geometry" />
        </mxCell>
        <mxCell id="LYkMAWIoaBzYGvGp5P5f-28" value="TURISTAS" style="whiteSpace=wrap;html=1;align=center;" vertex="1" parent="1">
          <mxGeometry x="110" y="520" width="100" height="40" as="geometry" />
        </mxCell>
        <mxCell id="LYkMAWIoaBzYGvGp5P5f-32" value="CLASE" style="ellipse;whiteSpace=wrap;html=1;align=center;" vertex="1" parent="1">
          <mxGeometry x="295" y="490" width="70" height="30" as="geometry" />
        </mxCell>
        <mxCell id="LYkMAWIoaBzYGvGp5P5f-62" style="edgeStyle=orthogonalEdgeStyle;rounded=0;orthogonalLoop=1;jettySize=auto;html=1;exitX=1;exitY=0.5;exitDx=0;exitDy=0;entryX=0;entryY=0.5;entryDx=0;entryDy=0;" edge="1" parent="1" source="LYkMAWIoaBzYGvGp5P5f-34" target="LYkMAWIoaBzYGvGp5P5f-9">
          <mxGeometry relative="1" as="geometry" />
        </mxCell>
        <mxCell id="LYkMAWIoaBzYGvGp5P5f-34" value="HOSPEDA" style="shape=rhombus;perimeter=rhombusPerimeter;whiteSpace=wrap;html=1;align=center;" vertex="1" parent="1">
          <mxGeometry x="340" y="690" width="120" height="60" as="geometry" />
        </mxCell>
        <mxCell id="LYkMAWIoaBzYGvGp5P5f-46" style="edgeStyle=orthogonalEdgeStyle;rounded=0;orthogonalLoop=1;jettySize=auto;html=1;exitX=0.5;exitY=1;exitDx=0;exitDy=0;entryX=0.5;entryY=0;entryDx=0;entryDy=0;" edge="1" parent="1" source="LYkMAWIoaBzYGvGp5P5f-37" target="LYkMAWIoaBzYGvGp5P5f-27">
          <mxGeometry relative="1" as="geometry" />
        </mxCell>
        <mxCell id="LYkMAWIoaBzYGvGp5P5f-37" value="Nº VUELO" style="ellipse;whiteSpace=wrap;html=1;align=center;fontStyle=4;" vertex="1" parent="1">
          <mxGeometry x="580" y="280" width="80" height="30" as="geometry" />
        </mxCell>
        <mxCell id="LYkMAWIoaBzYGvGp5P5f-47" style="edgeStyle=orthogonalEdgeStyle;rounded=0;orthogonalLoop=1;jettySize=auto;html=1;exitX=0;exitY=0.5;exitDx=0;exitDy=0;entryX=0.5;entryY=0;entryDx=0;entryDy=0;" edge="1" parent="1" source="LYkMAWIoaBzYGvGp5P5f-39" target="LYkMAWIoaBzYGvGp5P5f-27">
          <mxGeometry relative="1" as="geometry" />
        </mxCell>
        <mxCell id="LYkMAWIoaBzYGvGp5P5f-39" value="FECHA" style="ellipse;whiteSpace=wrap;html=1;align=center;" vertex="1" parent="1">
          <mxGeometry x="670" y="535" width="80" height="30" as="geometry" />
        </mxCell>
        <mxCell id="LYkMAWIoaBzYGvGp5P5f-50" style="edgeStyle=orthogonalEdgeStyle;rounded=0;orthogonalLoop=1;jettySize=auto;html=1;exitX=0;exitY=0.5;exitDx=0;exitDy=0;entryX=0.5;entryY=0;entryDx=0;entryDy=0;" edge="1" parent="1" source="LYkMAWIoaBzYGvGp5P5f-40" target="LYkMAWIoaBzYGvGp5P5f-27">
          <mxGeometry relative="1" as="geometry" />
        </mxCell>
        <mxCell id="LYkMAWIoaBzYGvGp5P5f-40" value="HORA" style="ellipse;whiteSpace=wrap;html=1;align=center;" vertex="1" parent="1">
          <mxGeometry x="670" y="400" width="80" height="30" as="geometry" />
        </mxCell>
        <mxCell id="LYkMAWIoaBzYGvGp5P5f-49" style="edgeStyle=orthogonalEdgeStyle;rounded=0;orthogonalLoop=1;jettySize=auto;html=1;exitX=0;exitY=0.5;exitDx=0;exitDy=0;entryX=0.5;entryY=0;entryDx=0;entryDy=0;" edge="1" parent="1" source="LYkMAWIoaBzYGvGp5P5f-41" target="LYkMAWIoaBzYGvGp5P5f-27">
          <mxGeometry relative="1" as="geometry" />
        </mxCell>
        <mxCell id="LYkMAWIoaBzYGvGp5P5f-41" value="ORIGEN" style="ellipse;whiteSpace=wrap;html=1;align=center;" vertex="1" parent="1">
          <mxGeometry x="670" y="440" width="80" height="30" as="geometry" />
        </mxCell>
        <mxCell id="LYkMAWIoaBzYGvGp5P5f-48" style="edgeStyle=orthogonalEdgeStyle;rounded=0;orthogonalLoop=1;jettySize=auto;html=1;exitX=0;exitY=0.5;exitDx=0;exitDy=0;entryX=0.5;entryY=0;entryDx=0;entryDy=0;" edge="1" parent="1" source="LYkMAWIoaBzYGvGp5P5f-42" target="LYkMAWIoaBzYGvGp5P5f-27">
          <mxGeometry relative="1" as="geometry" />
        </mxCell>
        <mxCell id="LYkMAWIoaBzYGvGp5P5f-42" value="DESTINO" style="ellipse;whiteSpace=wrap;html=1;align=center;" vertex="1" parent="1">
          <mxGeometry x="670" y="470" width="80" height="30" as="geometry" />
        </mxCell>
        <mxCell id="LYkMAWIoaBzYGvGp5P5f-45" style="edgeStyle=orthogonalEdgeStyle;rounded=0;orthogonalLoop=1;jettySize=auto;html=1;exitX=0.5;exitY=1;exitDx=0;exitDy=0;entryX=0.5;entryY=0;entryDx=0;entryDy=0;" edge="1" parent="1" source="LYkMAWIoaBzYGvGp5P5f-43" target="LYkMAWIoaBzYGvGp5P5f-27">
          <mxGeometry relative="1" as="geometry" />
        </mxCell>
        <mxCell id="LYkMAWIoaBzYGvGp5P5f-43" value="PLAZAS" style="ellipse;whiteSpace=wrap;html=1;align=center;" vertex="1" parent="1">
          <mxGeometry x="490" y="280" width="80" height="30" as="geometry" />
        </mxCell>
        <mxCell id="LYkMAWIoaBzYGvGp5P5f-56" style="edgeStyle=orthogonalEdgeStyle;rounded=0;orthogonalLoop=1;jettySize=auto;html=1;exitX=1;exitY=0.5;exitDx=0;exitDy=0;entryX=0;entryY=0.5;entryDx=0;entryDy=0;" edge="1" parent="1" source="LYkMAWIoaBzYGvGp5P5f-53" target="LYkMAWIoaBzYGvGp5P5f-34">
          <mxGeometry relative="1" as="geometry" />
        </mxCell>
        <mxCell id="LYkMAWIoaBzYGvGp5P5f-53" value="LLEGADA" style="ellipse;whiteSpace=wrap;html=1;align=center;" vertex="1" parent="1">
          <mxGeometry x="210" y="750" width="70" height="30" as="geometry" />
        </mxCell>
        <mxCell id="LYkMAWIoaBzYGvGp5P5f-58" style="edgeStyle=orthogonalEdgeStyle;rounded=0;orthogonalLoop=1;jettySize=auto;html=1;exitX=1;exitY=0.5;exitDx=0;exitDy=0;entryX=0;entryY=0.5;entryDx=0;entryDy=0;" edge="1" parent="1" source="LYkMAWIoaBzYGvGp5P5f-54" target="LYkMAWIoaBzYGvGp5P5f-34">
          <mxGeometry relative="1" as="geometry" />
        </mxCell>
        <mxCell id="LYkMAWIoaBzYGvGp5P5f-54" value="RÉGIMEN" style="ellipse;whiteSpace=wrap;html=1;align=center;" vertex="1" parent="1">
          <mxGeometry x="210" y="670" width="70" height="30" as="geometry" />
        </mxCell>
        <mxCell id="LYkMAWIoaBzYGvGp5P5f-57" style="edgeStyle=orthogonalEdgeStyle;rounded=0;orthogonalLoop=1;jettySize=auto;html=1;exitX=1;exitY=0.5;exitDx=0;exitDy=0;entryX=0;entryY=0.5;entryDx=0;entryDy=0;" edge="1" parent="1" source="LYkMAWIoaBzYGvGp5P5f-55" target="LYkMAWIoaBzYGvGp5P5f-34">
          <mxGeometry relative="1" as="geometry" />
        </mxCell>
        <mxCell id="LYkMAWIoaBzYGvGp5P5f-55" value="PARTIDA" style="ellipse;whiteSpace=wrap;html=1;align=center;" vertex="1" parent="1">
          <mxGeometry x="210" y="710" width="70" height="30" as="geometry" />
        </mxCell>
      </root>
    </mxGraphModel>
  </diagram>
</mxfile>
